<svg width="230" height="48" viewBox="0 0 230 48" fill="none" xmlns="http://www.w3.org/2000/svg">
<rect x="0.5" y="10.5" width="229" height="26" rx="4.5" fill="#DCEAFC" stroke="#005187"/>
<path d="M13.4375 35.3125C14.3695 35.3125 15.125 34.557 15.125 33.625C15.125 32.693 14.3695 31.9375 13.4375 31.9375C12.5055 31.9375 11.75 32.693 11.75 33.625C11.75 34.557 12.5055 35.3125 13.4375 35.3125Z" fill="#005187"/>
<path d="M25.25 35.3125C26.182 35.3125 26.9375 34.557 26.9375 33.625C26.9375 32.693 26.182 31.9375 25.25 31.9375C24.318 31.9375 23.5625 32.693 23.5625 33.625C23.5625 34.557 24.318 35.3125 25.25 35.3125Z" fill="#005187"/>
<path d="M28.625 15.9062H9.91063L9.21875 12.3625C9.1793 12.169 9.07327 11.9955 8.9191 11.8722C8.76493 11.7489 8.57239 11.6835 8.375 11.6875H5V13.375H7.68313L10.9063 29.575C10.9457 29.7684 11.0517 29.9419 11.2059 30.0653C11.3601 30.1886 11.5526 30.254 11.75 30.25H26.9375V28.5625H12.4419L11.75 25.1875H26.9375C27.1325 25.1923 27.3232 25.1293 27.4771 25.0093C27.6309 24.8893 27.7384 24.7197 27.7813 24.5294L29.4688 16.9356C29.497 16.8104 29.4964 16.6804 29.4668 16.5555C29.4373 16.4306 29.3796 16.3141 29.2983 16.2149C29.2169 16.1156 29.114 16.0362 28.9973 15.9827C28.8806 15.9292 28.7533 15.9031 28.625 15.9062ZM26.2625 23.5H11.4294L10.2481 17.5937H27.5703L26.2625 23.5Z" fill="#005187"/>
<path d="M38.3517 29.304C37.2957 29.304 36.389 29.1227 35.6317 28.76C34.8744 28.3867 34.2557 27.9013 33.7757 27.304C33.2957 26.696 32.9384 26.0453 32.7037 25.352C32.4797 24.648 32.3677 23.9653 32.3677 23.304V22.952C32.3677 22.2267 32.485 21.512 32.7197 20.808C32.9544 20.0933 33.3117 19.448 33.7917 18.872C34.2824 18.296 34.8957 17.8373 35.6317 17.496C36.3784 17.144 37.2584 16.968 38.2717 16.968C39.3277 16.968 40.261 17.1653 41.0717 17.56C41.8824 17.9547 42.5277 18.504 43.0077 19.208C43.4984 19.9013 43.7864 20.7173 43.8717 21.656H41.2317C41.157 21.1867 40.9864 20.7867 40.7197 20.456C40.453 20.1253 40.1064 19.8693 39.6797 19.688C39.2637 19.5067 38.7944 19.416 38.2717 19.416C37.749 19.416 37.285 19.5067 36.8797 19.688C36.4744 19.8693 36.133 20.1253 35.8557 20.456C35.589 20.7867 35.381 21.1813 35.2317 21.64C35.093 22.088 35.0237 22.5893 35.0237 23.144C35.0237 23.688 35.093 24.1893 35.2317 24.648C35.381 25.096 35.5944 25.4907 35.8717 25.832C36.1597 26.1627 36.5117 26.4187 36.9277 26.6C37.3437 26.7707 37.8184 26.856 38.3517 26.856C39.1624 26.856 39.845 26.6587 40.3997 26.264C40.965 25.8693 41.3064 25.3253 41.4237 24.632H44.0477C43.9517 25.4853 43.6637 26.2693 43.1837 26.984C42.7144 27.688 42.069 28.2533 41.2477 28.68C40.437 29.096 39.4717 29.304 38.3517 29.304ZM51.3886 29.304C50.3326 29.304 49.4099 29.1227 48.6206 28.76C47.8419 28.3867 47.1966 27.9013 46.6846 27.304C46.1726 26.696 45.7886 26.04 45.5326 25.336C45.2872 24.632 45.1646 23.9547 45.1646 23.304V22.952C45.1646 22.2267 45.2926 21.512 45.5486 20.808C45.8152 20.0933 46.2099 19.448 46.7326 18.872C47.2552 18.296 47.9059 17.8373 48.6846 17.496C49.4632 17.144 50.3646 16.968 51.3886 16.968C52.4126 16.968 53.3139 17.144 54.0926 17.496C54.8712 17.8373 55.5219 18.296 56.0446 18.872C56.5672 19.448 56.9619 20.0933 57.2286 20.808C57.4952 21.512 57.6286 22.2267 57.6286 22.952V23.304C57.6286 23.9547 57.5006 24.632 57.2446 25.336C56.9886 26.04 56.6046 26.696 56.0926 27.304C55.5806 27.9013 54.9299 28.3867 54.1406 28.76C53.3619 29.1227 52.4446 29.304 51.3886 29.304ZM51.3886 26.856C51.9432 26.856 52.4392 26.76 52.8766 26.568C53.3246 26.376 53.7032 26.1093 54.0126 25.768C54.3326 25.4267 54.5726 25.032 54.7326 24.584C54.8926 24.136 54.9726 23.656 54.9726 23.144C54.9726 22.6 54.8872 22.104 54.7166 21.656C54.5566 21.1973 54.3166 20.8027 53.9966 20.472C53.6872 20.1307 53.3139 19.8693 52.8766 19.688C52.4392 19.5067 51.9432 19.416 51.3886 19.416C50.8339 19.416 50.3379 19.5067 49.9006 19.688C49.4632 19.8693 49.0846 20.1307 48.7646 20.472C48.4552 20.8027 48.2206 21.1973 48.0606 21.656C47.9006 22.104 47.8206 22.6 47.8206 23.144C47.8206 23.656 47.9006 24.136 48.0606 24.584C48.2206 25.032 48.4552 25.4267 48.7646 25.768C49.0846 26.1093 49.4632 26.376 49.9006 26.568C50.3379 26.76 50.8339 26.856 51.3886 26.856ZM59.6167 29V17.32H63.2327L65.9047 23.88H66.2087L68.8487 17.32H72.5287V29H69.9367V19.032L70.3047 19.064L67.2167 26.632H64.7207L61.6167 19.064L62.0167 19.032V29H59.6167ZM77.4519 25.656V23.384H79.5479C79.9533 23.384 80.2999 23.304 80.5879 23.144C80.8866 22.984 81.1159 22.76 81.2759 22.472C81.4359 22.1733 81.5159 21.832 81.5159 21.448C81.5159 21.0427 81.4359 20.696 81.2759 20.408C81.1159 20.1093 80.8866 19.8853 80.5879 19.736C80.2999 19.576 79.9533 19.496 79.5479 19.496H77.4519V17.224H79.4199C80.4119 17.224 81.2599 17.3893 81.9639 17.72C82.6786 18.0507 83.2226 18.52 83.5959 19.128C83.9799 19.736 84.1719 20.4667 84.1719 21.32V21.576C84.1719 22.408 83.9799 23.1333 83.5959 23.752C83.2226 24.36 82.6786 24.8293 81.9639 25.16C81.2599 25.4907 80.4119 25.656 79.4199 25.656H77.4519ZM75.1479 29V17.224H77.7719V29H75.1479ZM85.8198 29V17.224H88.4438V29H85.8198ZM92.9078 29L89.4838 23.976H92.3638L95.9478 29H92.9078ZM87.7398 25.256V23.192H90.6198C91.0038 23.192 91.3345 23.1173 91.6118 22.968C91.8998 22.808 92.1185 22.5893 92.2678 22.312C92.4278 22.024 92.5078 21.6933 92.5078 21.32C92.5078 20.9467 92.4278 20.6213 92.2678 20.344C92.1185 20.056 91.8998 19.8373 91.6118 19.688C91.3345 19.528 91.0038 19.448 90.6198 19.448H87.7398V17.224H90.4118C91.3825 17.224 92.2251 17.3733 92.9398 17.672C93.6545 17.96 94.2038 18.392 94.5878 18.968C94.9718 19.544 95.1638 20.2693 95.1638 21.144V21.4C95.1638 22.264 94.9665 22.984 94.5718 23.56C94.1878 24.1253 93.6385 24.552 92.9238 24.84C92.2198 25.1173 91.3825 25.256 90.4118 25.256H87.7398ZM96.4033 29L100.259 17.32H104.499L108.499 29H105.779L102.547 19.128L103.379 19.464H101.315L102.179 19.128L99.0273 29H96.4033ZM99.3313 26.104L100.131 23.928H104.707L105.523 26.104H99.3313ZM114.024 29.304C112.968 29.304 112.078 29.1387 111.352 28.808C110.627 28.4667 110.078 28.008 109.704 27.432C109.331 26.8453 109.144 26.1733 109.144 25.416H111.688C111.688 25.7147 111.768 25.992 111.928 26.248C112.099 26.504 112.355 26.712 112.696 26.872C113.038 27.0213 113.48 27.096 114.024 27.096C114.515 27.096 114.926 27.032 115.256 26.904C115.587 26.776 115.838 26.6 116.008 26.376C116.179 26.1413 116.264 25.8747 116.264 25.576C116.264 25.2027 116.104 24.9093 115.784 24.696C115.464 24.472 114.947 24.328 114.232 24.264L113.352 24.184C112.19 24.088 111.262 23.7253 110.568 23.096C109.875 22.4667 109.528 21.6347 109.528 20.6C109.528 19.8533 109.704 19.208 110.056 18.664C110.419 18.12 110.92 17.704 111.56 17.416C112.2 17.1173 112.958 16.968 113.832 16.968C114.75 16.968 115.534 17.128 116.184 17.448C116.846 17.7573 117.352 18.2 117.704 18.776C118.056 19.3413 118.232 20.008 118.232 20.776H115.672C115.672 20.488 115.603 20.2267 115.464 19.992C115.326 19.7467 115.118 19.5493 114.84 19.4C114.574 19.2507 114.238 19.176 113.832 19.176C113.448 19.176 113.123 19.24 112.856 19.368C112.6 19.496 112.408 19.672 112.28 19.896C112.152 20.1093 112.088 20.344 112.088 20.6C112.088 20.9307 112.206 21.2187 112.44 21.464C112.675 21.7093 113.059 21.8533 113.592 21.896L114.488 21.976C115.342 22.0507 116.094 22.2373 116.744 22.536C117.395 22.824 117.902 23.224 118.264 23.736C118.638 24.2373 118.824 24.8507 118.824 25.576C118.824 26.3227 118.627 26.9787 118.232 27.544C117.848 28.0987 117.299 28.5307 116.584 28.84C115.87 29.1493 115.016 29.304 114.024 29.304Z" fill="#005187"/>
<path d="M174.405 25.656V23.384H176.501C176.906 23.384 177.253 23.304 177.541 23.144C177.84 22.984 178.069 22.76 178.229 22.472C178.389 22.1733 178.469 21.832 178.469 21.448C178.469 21.0427 178.389 20.696 178.229 20.408C178.069 20.1093 177.84 19.8853 177.541 19.736C177.253 19.576 176.906 19.496 176.501 19.496H174.405V17.224H176.373C177.365 17.224 178.213 17.3893 178.917 17.72C179.632 18.0507 180.176 18.52 180.549 19.128C180.933 19.736 181.125 20.4667 181.125 21.32V21.576C181.125 22.408 180.933 23.1333 180.549 23.752C180.176 24.36 179.632 24.8293 178.917 25.16C178.213 25.4907 177.365 25.656 176.373 25.656H174.405ZM172.101 29V17.224H174.725V29H172.101ZM180.81 29L184.666 17.32H188.906L192.906 29H190.186L186.954 19.128L187.786 19.464H185.722L186.586 19.128L183.434 29H180.81ZM183.738 26.104L184.538 23.928H189.114L189.93 26.104H183.738ZM196.733 25.656V23.384H198.829C199.235 23.384 199.581 23.304 199.869 23.144C200.168 22.984 200.397 22.76 200.557 22.472C200.717 22.1733 200.797 21.832 200.797 21.448C200.797 21.0427 200.717 20.696 200.557 20.408C200.397 20.1093 200.168 19.8853 199.869 19.736C199.581 19.576 199.235 19.496 198.829 19.496H196.733V17.224H198.701C199.693 17.224 200.541 17.3893 201.245 17.72C201.96 18.0507 202.504 18.52 202.877 19.128C203.261 19.736 203.453 20.4667 203.453 21.32V21.576C203.453 22.408 203.261 23.1333 202.877 23.752C202.504 24.36 201.96 24.8293 201.245 25.16C200.541 25.4907 199.693 25.656 198.701 25.656H196.733ZM194.429 29V17.224H197.053V29H194.429ZM205.101 29V17.32H207.661V29H205.101ZM207.341 29V26.824H212.445V29H207.341ZM207.341 24.152V21.976H212.077V24.152H207.341ZM207.341 19.496V17.32H212.333V19.496H207.341ZM214.601 29V17.32H217.225V29H214.601ZM216.905 29V26.696H221.801V29H216.905Z" fill="#005187"/>
<circle cx="145" cy="24" r="24" fill="#005187"/>
<path d="M130.564 32.456C128.98 32.456 127.644 32.208 126.556 31.712C125.468 31.2 124.644 30.512 124.084 29.648C123.524 28.768 123.244 27.76 123.244 26.624H127.06C127.06 27.072 127.18 27.488 127.42 27.872C127.676 28.256 128.06 28.568 128.572 28.808C129.084 29.032 129.748 29.144 130.564 29.144C131.3 29.144 131.916 29.048 132.412 28.856C132.908 28.664 133.284 28.4 133.54 28.064C133.796 27.712 133.924 27.312 133.924 26.864C133.924 26.304 133.684 25.864 133.204 25.544C132.724 25.208 131.948 24.992 130.876 24.896L129.556 24.776C127.812 24.632 126.42 24.088 125.38 23.144C124.34 22.2 123.82 20.952 123.82 19.4C123.82 18.28 124.084 17.312 124.612 16.496C125.156 15.68 125.908 15.056 126.868 14.624C127.828 14.176 128.964 13.952 130.276 13.952C131.652 13.952 132.828 14.192 133.804 14.672C134.796 15.136 135.556 15.8 136.084 16.664C136.612 17.512 136.876 18.512 136.876 19.664H133.036C133.036 19.232 132.932 18.84 132.724 18.488C132.516 18.12 132.204 17.824 131.788 17.6C131.388 17.376 130.884 17.264 130.276 17.264C129.7 17.264 129.212 17.36 128.812 17.552C128.428 17.744 128.14 18.008 127.948 18.344C127.756 18.664 127.66 19.016 127.66 19.4C127.66 19.896 127.836 20.328 128.188 20.696C128.54 21.064 129.116 21.28 129.916 21.344L131.26 21.464C132.54 21.576 133.668 21.856 134.644 22.304C135.62 22.736 136.38 23.336 136.924 24.104C137.484 24.856 137.764 25.776 137.764 26.864C137.764 27.984 137.468 28.968 136.876 29.816C136.3 30.648 135.476 31.296 134.404 31.76C133.332 32.224 132.052 32.456 130.564 32.456ZM140.524 32V14.48H144.46V32H140.524ZM148.445 32V14.48H154.901L161.501 28.808H162.317L161.837 29.24V14.48H165.533V32H159.029L152.429 17.672H151.613L152.093 17.24V32H148.445Z" fill="#DCEAFC"/>
</svg>
